<svg xmlns="http://www.w3.org/2000/svg" viewBox="0 0 64 64" width="64" height="64" role="img" aria-label="agent-compose">
  <title>agent-compose</title>
  <desc>A spool of thread wound with twill cloth, its flanges reaching the edge of the coin.</desc>
  <defs>
    <clipPath id="core"><rect x="20.5" y="16.5" width="23" height="31"/></clipPath>
    <clipPath id="ring"><circle cx="32" cy="32" r="27.5"/></clipPath>
  </defs>
  <rect width="64" height="64" fill="#080711"/>
  <g clip-path="url(#core)"><g fill="#fb6e00"><rect x="-10" y="0" width="4" height="64"/><rect x="-6" y="0" width="4" height="64"/><rect x="-2" y="0" width="4" height="64"/><rect x="2" y="0" width="4" height="64"/><rect x="6" y="0" width="4" height="64"/><rect x="10" y="0" width="4" height="64"/><rect x="14" y="0" width="4" height="64"/><rect x="18" y="0" width="4" height="64"/><rect x="22" y="0" width="4" height="64"/><rect x="26" y="0" width="4" height="64"/><rect x="30" y="0" width="4" height="64"/><rect x="34" y="0" width="4" height="64"/><rect x="38" y="0" width="4" height="64"/><rect x="42" y="0" width="4" height="64"/><rect x="46" y="0" width="4" height="64"/><rect x="50" y="0" width="4" height="64"/><rect x="54" y="0" width="4" height="64"/><rect x="58" y="0" width="4" height="64"/><rect x="62" y="0" width="4" height="64"/><rect x="66" y="0" width="4" height="64"/></g><g fill="#6a3bf2"><rect x="0" y="-10" width="64" height="4"/><rect x="0" y="-6" width="64" height="4"/><rect x="0" y="-2" width="64" height="4"/><rect x="0" y="2" width="64" height="4"/><rect x="0" y="6" width="64" height="4"/><rect x="0" y="10" width="64" height="4"/><rect x="0" y="14" width="64" height="4"/><rect x="0" y="18" width="64" height="4"/><rect x="0" y="22" width="64" height="4"/><rect x="0" y="26" width="64" height="4"/><rect x="0" y="30" width="64" height="4"/><rect x="0" y="34" width="64" height="4"/><rect x="0" y="38" width="64" height="4"/><rect x="0" y="42" width="64" height="4"/><rect x="0" y="46" width="64" height="4"/><rect x="0" y="50" width="64" height="4"/><rect x="0" y="54" width="64" height="4"/><rect x="0" y="58" width="64" height="4"/><rect x="0" y="62" width="64" height="4"/><rect x="0" y="66" width="64" height="4"/></g><g fill="#fb6e00"><rect x="-10" y="-10" width="4" height="4"/><rect x="-6" y="-10" width="4" height="4"/><rect x="6" y="-10" width="4" height="4"/><rect x="10" y="-10" width="4" height="4"/><rect x="22" y="-10" width="4" height="4"/><rect x="26" y="-10" width="4" height="4"/><rect x="38" y="-10" width="4" height="4"/><rect x="42" y="-10" width="4" height="4"/><rect x="54" y="-10" width="4" height="4"/><rect x="58" y="-10" width="4" height="4"/><rect x="-10" y="-6" width="4" height="4"/><rect x="2" y="-6" width="4" height="4"/><rect x="6" y="-6" width="4" height="4"/><rect x="18" y="-6" width="4" height="4"/><rect x="22" y="-6" width="4" height="4"/><rect x="34" y="-6" width="4" height="4"/><rect x="38" y="-6" width="4" height="4"/><rect x="50" y="-6" width="4" height="4"/><rect x="54" y="-6" width="4" height="4"/><rect x="66" y="-6" width="4" height="4"/><rect x="-2" y="-2" width="4" height="4"/><rect x="2" y="-2" width="4" height="4"/><rect x="14" y="-2" width="4" height="4"/><rect x="18" y="-2" width="4" height="4"/><rect x="30" y="-2" width="4" height="4"/><rect x="34" y="-2" width="4" height="4"/><rect x="46" y="-2" width="4" height="4"/><rect x="50" y="-2" width="4" height="4"/><rect x="62" y="-2" width="4" height="4"/><rect x="66" y="-2" width="4" height="4"/><rect x="-6" y="2" width="4" height="4"/><rect x="-2" y="2" width="4" height="4"/><rect x="10" y="2" width="4" height="4"/><rect x="14" y="2" width="4" height="4"/><rect x="26" y="2" width="4" height="4"/><rect x="30" y="2" width="4" height="4"/><rect x="42" y="2" width="4" height="4"/><rect x="46" y="2" width="4" height="4"/><rect x="58" y="2" width="4" height="4"/><rect x="62" y="2" width="4" height="4"/><rect x="-10" y="6" width="4" height="4"/><rect x="-6" y="6" width="4" height="4"/><rect x="6" y="6" width="4" height="4"/><rect x="10" y="6" width="4" height="4"/><rect x="22" y="6" width="4" height="4"/><rect x="26" y="6" width="4" height="4"/><rect x="38" y="6" width="4" height="4"/><rect x="42" y="6" width="4" height="4"/><rect x="54" y="6" width="4" height="4"/><rect x="58" y="6" width="4" height="4"/><rect x="-10" y="10" width="4" height="4"/><rect x="2" y="10" width="4" height="4"/><rect x="6" y="10" width="4" height="4"/><rect x="18" y="10" width="4" height="4"/><rect x="22" y="10" width="4" height="4"/><rect x="34" y="10" width="4" height="4"/><rect x="38" y="10" width="4" height="4"/><rect x="50" y="10" width="4" height="4"/><rect x="54" y="10" width="4" height="4"/><rect x="66" y="10" width="4" height="4"/><rect x="-2" y="14" width="4" height="4"/><rect x="2" y="14" width="4" height="4"/><rect x="14" y="14" width="4" height="4"/><rect x="18" y="14" width="4" height="4"/><rect x="30" y="14" width="4" height="4"/><rect x="34" y="14" width="4" height="4"/><rect x="46" y="14" width="4" height="4"/><rect x="50" y="14" width="4" height="4"/><rect x="62" y="14" width="4" height="4"/><rect x="66" y="14" width="4" height="4"/><rect x="-6" y="18" width="4" height="4"/><rect x="-2" y="18" width="4" height="4"/><rect x="10" y="18" width="4" height="4"/><rect x="14" y="18" width="4" height="4"/><rect x="26" y="18" width="4" height="4"/><rect x="30" y="18" width="4" height="4"/><rect x="42" y="18" width="4" height="4"/><rect x="46" y="18" width="4" height="4"/><rect x="58" y="18" width="4" height="4"/><rect x="62" y="18" width="4" height="4"/><rect x="-10" y="22" width="4" height="4"/><rect x="-6" y="22" width="4" height="4"/><rect x="6" y="22" width="4" height="4"/><rect x="10" y="22" width="4" height="4"/><rect x="22" y="22" width="4" height="4"/><rect x="26" y="22" width="4" height="4"/><rect x="38" y="22" width="4" height="4"/><rect x="42" y="22" width="4" height="4"/><rect x="54" y="22" width="4" height="4"/><rect x="58" y="22" width="4" height="4"/><rect x="-10" y="26" width="4" height="4"/><rect x="2" y="26" width="4" height="4"/><rect x="6" y="26" width="4" height="4"/><rect x="18" y="26" width="4" height="4"/><rect x="22" y="26" width="4" height="4"/><rect x="34" y="26" width="4" height="4"/><rect x="38" y="26" width="4" height="4"/><rect x="50" y="26" width="4" height="4"/><rect x="54" y="26" width="4" height="4"/><rect x="66" y="26" width="4" height="4"/><rect x="-2" y="30" width="4" height="4"/><rect x="2" y="30" width="4" height="4"/><rect x="14" y="30" width="4" height="4"/><rect x="18" y="30" width="4" height="4"/><rect x="30" y="30" width="4" height="4"/><rect x="34" y="30" width="4" height="4"/><rect x="46" y="30" width="4" height="4"/><rect x="50" y="30" width="4" height="4"/><rect x="62" y="30" width="4" height="4"/><rect x="66" y="30" width="4" height="4"/><rect x="-6" y="34" width="4" height="4"/><rect x="-2" y="34" width="4" height="4"/><rect x="10" y="34" width="4" height="4"/><rect x="14" y="34" width="4" height="4"/><rect x="26" y="34" width="4" height="4"/><rect x="30" y="34" width="4" height="4"/><rect x="42" y="34" width="4" height="4"/><rect x="46" y="34" width="4" height="4"/><rect x="58" y="34" width="4" height="4"/><rect x="62" y="34" width="4" height="4"/><rect x="-10" y="38" width="4" height="4"/><rect x="-6" y="38" width="4" height="4"/><rect x="6" y="38" width="4" height="4"/><rect x="10" y="38" width="4" height="4"/><rect x="22" y="38" width="4" height="4"/><rect x="26" y="38" width="4" height="4"/><rect x="38" y="38" width="4" height="4"/><rect x="42" y="38" width="4" height="4"/><rect x="54" y="38" width="4" height="4"/><rect x="58" y="38" width="4" height="4"/><rect x="-10" y="42" width="4" height="4"/><rect x="2" y="42" width="4" height="4"/><rect x="6" y="42" width="4" height="4"/><rect x="18" y="42" width="4" height="4"/><rect x="22" y="42" width="4" height="4"/><rect x="34" y="42" width="4" height="4"/><rect x="38" y="42" width="4" height="4"/><rect x="50" y="42" width="4" height="4"/><rect x="54" y="42" width="4" height="4"/><rect x="66" y="42" width="4" height="4"/><rect x="-2" y="46" width="4" height="4"/><rect x="2" y="46" width="4" height="4"/><rect x="14" y="46" width="4" height="4"/><rect x="18" y="46" width="4" height="4"/><rect x="30" y="46" width="4" height="4"/><rect x="34" y="46" width="4" height="4"/><rect x="46" y="46" width="4" height="4"/><rect x="50" y="46" width="4" height="4"/><rect x="62" y="46" width="4" height="4"/><rect x="66" y="46" width="4" height="4"/><rect x="-6" y="50" width="4" height="4"/><rect x="-2" y="50" width="4" height="4"/><rect x="10" y="50" width="4" height="4"/><rect x="14" y="50" width="4" height="4"/><rect x="26" y="50" width="4" height="4"/><rect x="30" y="50" width="4" height="4"/><rect x="42" y="50" width="4" height="4"/><rect x="46" y="50" width="4" height="4"/><rect x="58" y="50" width="4" height="4"/><rect x="62" y="50" width="4" height="4"/><rect x="-10" y="54" width="4" height="4"/><rect x="-6" y="54" width="4" height="4"/><rect x="6" y="54" width="4" height="4"/><rect x="10" y="54" width="4" height="4"/><rect x="22" y="54" width="4" height="4"/><rect x="26" y="54" width="4" height="4"/><rect x="38" y="54" width="4" height="4"/><rect x="42" y="54" width="4" height="4"/><rect x="54" y="54" width="4" height="4"/><rect x="58" y="54" width="4" height="4"/><rect x="-10" y="58" width="4" height="4"/><rect x="2" y="58" width="4" height="4"/><rect x="6" y="58" width="4" height="4"/><rect x="18" y="58" width="4" height="4"/><rect x="22" y="58" width="4" height="4"/><rect x="34" y="58" width="4" height="4"/><rect x="38" y="58" width="4" height="4"/><rect x="50" y="58" width="4" height="4"/><rect x="54" y="58" width="4" height="4"/><rect x="66" y="58" width="4" height="4"/><rect x="-2" y="62" width="4" height="4"/><rect x="2" y="62" width="4" height="4"/><rect x="14" y="62" width="4" height="4"/><rect x="18" y="62" width="4" height="4"/><rect x="30" y="62" width="4" height="4"/><rect x="34" y="62" width="4" height="4"/><rect x="46" y="62" width="4" height="4"/><rect x="50" y="62" width="4" height="4"/><rect x="62" y="62" width="4" height="4"/><rect x="66" y="62" width="4" height="4"/><rect x="-6" y="66" width="4" height="4"/><rect x="-2" y="66" width="4" height="4"/><rect x="10" y="66" width="4" height="4"/><rect x="14" y="66" width="4" height="4"/><rect x="26" y="66" width="4" height="4"/><rect x="30" y="66" width="4" height="4"/><rect x="42" y="66" width="4" height="4"/><rect x="46" y="66" width="4" height="4"/><rect x="58" y="66" width="4" height="4"/><rect x="62" y="66" width="4" height="4"/></g></g>


  <g clip-path="url(#ring)">
    <path d="M11 9 H53 L49 16 H15 Z" fill="#080711"/><path d="M11 55 H53 L49 48 H15 Z" fill="#080711"/>
    <path d="M12 10 H52 L48 15 H16 Z" fill="#fb6e00"/><path d="M12 54 H52 L48 49 H16 Z" fill="#fb6e00"/>
  </g>
</svg>
