<svg xmlns="http://www.w3.org/2000/svg" viewBox="0 0 400 400" width="400" height="400" role="img" aria-label="agent-compose">
  <title>agent-compose</title>
  <desc>A spool of thread wound with twill cloth, its flanges crossing the ring.</desc>
  <defs>
    <clipPath id="core"><rect x="128" y="104" width="144" height="192"/></clipPath>
    <clipPath id="ring"><circle cx="200" cy="200" r="171.5"/></clipPath>
  </defs>
  <rect width="400" height="400" fill="#14111b"/>
  <g clip-path="url(#core)"><g fill="#4bcdd1"><rect x="-47" y="0" width="26" height="400"/><rect x="-21" y="0" width="26" height="400"/><rect x="5" y="0" width="26" height="400"/><rect x="31" y="0" width="26" height="400"/><rect x="57" y="0" width="26" height="400"/><rect x="83" y="0" width="26" height="400"/><rect x="109" y="0" width="26" height="400"/><rect x="135" y="0" width="26" height="400"/><rect x="161" y="0" width="26" height="400"/><rect x="187" y="0" width="26" height="400"/><rect x="213" y="0" width="26" height="400"/><rect x="239" y="0" width="26" height="400"/><rect x="265" y="0" width="26" height="400"/><rect x="291" y="0" width="26" height="400"/><rect x="317" y="0" width="26" height="400"/><rect x="343" y="0" width="26" height="400"/><rect x="369" y="0" width="26" height="400"/><rect x="395" y="0" width="26" height="400"/><rect x="421" y="0" width="26" height="400"/></g><g fill="#baa6d9"><rect x="0" y="-47" width="400" height="26"/><rect x="0" y="-21" width="400" height="26"/><rect x="0" y="5" width="400" height="26"/><rect x="0" y="31" width="400" height="26"/><rect x="0" y="57" width="400" height="26"/><rect x="0" y="83" width="400" height="26"/><rect x="0" y="109" width="400" height="26"/><rect x="0" y="135" width="400" height="26"/><rect x="0" y="161" width="400" height="26"/><rect x="0" y="187" width="400" height="26"/><rect x="0" y="213" width="400" height="26"/><rect x="0" y="239" width="400" height="26"/><rect x="0" y="265" width="400" height="26"/><rect x="0" y="291" width="400" height="26"/><rect x="0" y="317" width="400" height="26"/><rect x="0" y="343" width="400" height="26"/><rect x="0" y="369" width="400" height="26"/><rect x="0" y="395" width="400" height="26"/><rect x="0" y="421" width="400" height="26"/></g><g fill="#4bcdd1"><rect x="5" y="-47" width="26" height="26"/><rect x="31" y="-47" width="26" height="26"/><rect x="109" y="-47" width="26" height="26"/><rect x="135" y="-47" width="26" height="26"/><rect x="213" y="-47" width="26" height="26"/><rect x="239" y="-47" width="26" height="26"/><rect x="317" y="-47" width="26" height="26"/><rect x="343" y="-47" width="26" height="26"/><rect x="421" y="-47" width="26" height="26"/><rect x="-21" y="-21" width="26" height="26"/><rect x="5" y="-21" width="26" height="26"/><rect x="83" y="-21" width="26" height="26"/><rect x="109" y="-21" width="26" height="26"/><rect x="187" y="-21" width="26" height="26"/><rect x="213" y="-21" width="26" height="26"/><rect x="291" y="-21" width="26" height="26"/><rect x="317" y="-21" width="26" height="26"/><rect x="395" y="-21" width="26" height="26"/><rect x="421" y="-21" width="26" height="26"/><rect x="-47" y="5" width="26" height="26"/><rect x="-21" y="5" width="26" height="26"/><rect x="57" y="5" width="26" height="26"/><rect x="83" y="5" width="26" height="26"/><rect x="161" y="5" width="26" height="26"/><rect x="187" y="5" width="26" height="26"/><rect x="265" y="5" width="26" height="26"/><rect x="291" y="5" width="26" height="26"/><rect x="369" y="5" width="26" height="26"/><rect x="395" y="5" width="26" height="26"/><rect x="-47" y="31" width="26" height="26"/><rect x="31" y="31" width="26" height="26"/><rect x="57" y="31" width="26" height="26"/><rect x="135" y="31" width="26" height="26"/><rect x="161" y="31" width="26" height="26"/><rect x="239" y="31" width="26" height="26"/><rect x="265" y="31" width="26" height="26"/><rect x="343" y="31" width="26" height="26"/><rect x="369" y="31" width="26" height="26"/><rect x="5" y="57" width="26" height="26"/><rect x="31" y="57" width="26" height="26"/><rect x="109" y="57" width="26" height="26"/><rect x="135" y="57" width="26" height="26"/><rect x="213" y="57" width="26" height="26"/><rect x="239" y="57" width="26" height="26"/><rect x="317" y="57" width="26" height="26"/><rect x="343" y="57" width="26" height="26"/><rect x="421" y="57" width="26" height="26"/><rect x="-21" y="83" width="26" height="26"/><rect x="5" y="83" width="26" height="26"/><rect x="83" y="83" width="26" height="26"/><rect x="109" y="83" width="26" height="26"/><rect x="187" y="83" width="26" height="26"/><rect x="213" y="83" width="26" height="26"/><rect x="291" y="83" width="26" height="26"/><rect x="317" y="83" width="26" height="26"/><rect x="395" y="83" width="26" height="26"/><rect x="421" y="83" width="26" height="26"/><rect x="-47" y="109" width="26" height="26"/><rect x="-21" y="109" width="26" height="26"/><rect x="57" y="109" width="26" height="26"/><rect x="83" y="109" width="26" height="26"/><rect x="161" y="109" width="26" height="26"/><rect x="187" y="109" width="26" height="26"/><rect x="265" y="109" width="26" height="26"/><rect x="291" y="109" width="26" height="26"/><rect x="369" y="109" width="26" height="26"/><rect x="395" y="109" width="26" height="26"/><rect x="-47" y="135" width="26" height="26"/><rect x="31" y="135" width="26" height="26"/><rect x="57" y="135" width="26" height="26"/><rect x="135" y="135" width="26" height="26"/><rect x="161" y="135" width="26" height="26"/><rect x="239" y="135" width="26" height="26"/><rect x="265" y="135" width="26" height="26"/><rect x="343" y="135" width="26" height="26"/><rect x="369" y="135" width="26" height="26"/><rect x="5" y="161" width="26" height="26"/><rect x="31" y="161" width="26" height="26"/><rect x="109" y="161" width="26" height="26"/><rect x="135" y="161" width="26" height="26"/><rect x="213" y="161" width="26" height="26"/><rect x="239" y="161" width="26" height="26"/><rect x="317" y="161" width="26" height="26"/><rect x="343" y="161" width="26" height="26"/><rect x="421" y="161" width="26" height="26"/><rect x="-21" y="187" width="26" height="26"/><rect x="5" y="187" width="26" height="26"/><rect x="83" y="187" width="26" height="26"/><rect x="109" y="187" width="26" height="26"/><rect x="187" y="187" width="26" height="26"/><rect x="213" y="187" width="26" height="26"/><rect x="291" y="187" width="26" height="26"/><rect x="317" y="187" width="26" height="26"/><rect x="395" y="187" width="26" height="26"/><rect x="421" y="187" width="26" height="26"/><rect x="-47" y="213" width="26" height="26"/><rect x="-21" y="213" width="26" height="26"/><rect x="57" y="213" width="26" height="26"/><rect x="83" y="213" width="26" height="26"/><rect x="161" y="213" width="26" height="26"/><rect x="187" y="213" width="26" height="26"/><rect x="265" y="213" width="26" height="26"/><rect x="291" y="213" width="26" height="26"/><rect x="369" y="213" width="26" height="26"/><rect x="395" y="213" width="26" height="26"/><rect x="-47" y="239" width="26" height="26"/><rect x="31" y="239" width="26" height="26"/><rect x="57" y="239" width="26" height="26"/><rect x="135" y="239" width="26" height="26"/><rect x="161" y="239" width="26" height="26"/><rect x="239" y="239" width="26" height="26"/><rect x="265" y="239" width="26" height="26"/><rect x="343" y="239" width="26" height="26"/><rect x="369" y="239" width="26" height="26"/><rect x="5" y="265" width="26" height="26"/><rect x="31" y="265" width="26" height="26"/><rect x="109" y="265" width="26" height="26"/><rect x="135" y="265" width="26" height="26"/><rect x="213" y="265" width="26" height="26"/><rect x="239" y="265" width="26" height="26"/><rect x="317" y="265" width="26" height="26"/><rect x="343" y="265" width="26" height="26"/><rect x="421" y="265" width="26" height="26"/><rect x="-21" y="291" width="26" height="26"/><rect x="5" y="291" width="26" height="26"/><rect x="83" y="291" width="26" height="26"/><rect x="109" y="291" width="26" height="26"/><rect x="187" y="291" width="26" height="26"/><rect x="213" y="291" width="26" height="26"/><rect x="291" y="291" width="26" height="26"/><rect x="317" y="291" width="26" height="26"/><rect x="395" y="291" width="26" height="26"/><rect x="421" y="291" width="26" height="26"/><rect x="-47" y="317" width="26" height="26"/><rect x="-21" y="317" width="26" height="26"/><rect x="57" y="317" width="26" height="26"/><rect x="83" y="317" width="26" height="26"/><rect x="161" y="317" width="26" height="26"/><rect x="187" y="317" width="26" height="26"/><rect x="265" y="317" width="26" height="26"/><rect x="291" y="317" width="26" height="26"/><rect x="369" y="317" width="26" height="26"/><rect x="395" y="317" width="26" height="26"/><rect x="-47" y="343" width="26" height="26"/><rect x="31" y="343" width="26" height="26"/><rect x="57" y="343" width="26" height="26"/><rect x="135" y="343" width="26" height="26"/><rect x="161" y="343" width="26" height="26"/><rect x="239" y="343" width="26" height="26"/><rect x="265" y="343" width="26" height="26"/><rect x="343" y="343" width="26" height="26"/><rect x="369" y="343" width="26" height="26"/><rect x="5" y="369" width="26" height="26"/><rect x="31" y="369" width="26" height="26"/><rect x="109" y="369" width="26" height="26"/><rect x="135" y="369" width="26" height="26"/><rect x="213" y="369" width="26" height="26"/><rect x="239" y="369" width="26" height="26"/><rect x="317" y="369" width="26" height="26"/><rect x="343" y="369" width="26" height="26"/><rect x="421" y="369" width="26" height="26"/><rect x="-21" y="395" width="26" height="26"/><rect x="5" y="395" width="26" height="26"/><rect x="83" y="395" width="26" height="26"/><rect x="109" y="395" width="26" height="26"/><rect x="187" y="395" width="26" height="26"/><rect x="213" y="395" width="26" height="26"/><rect x="291" y="395" width="26" height="26"/><rect x="317" y="395" width="26" height="26"/><rect x="395" y="395" width="26" height="26"/><rect x="421" y="395" width="26" height="26"/><rect x="-47" y="421" width="26" height="26"/><rect x="-21" y="421" width="26" height="26"/><rect x="57" y="421" width="26" height="26"/><rect x="83" y="421" width="26" height="26"/><rect x="161" y="421" width="26" height="26"/><rect x="187" y="421" width="26" height="26"/><rect x="265" y="421" width="26" height="26"/><rect x="291" y="421" width="26" height="26"/><rect x="369" y="421" width="26" height="26"/><rect x="395" y="421" width="26" height="26"/></g></g>
  <circle cx="200" cy="200" r="165.5" fill="none" stroke="#4bcdd1" stroke-width="12"/>
  <circle cx="200" cy="200" r="153" fill="none" stroke="#baa6d9" stroke-width="13"/>
  <g clip-path="url(#ring)">
    <path d="M69 57 H331 L305 103 H95 Z" fill="#14111b"/><path d="M69 343 H331 L305 297 H95 Z" fill="#14111b"/>
    <path d="M76 64 H324 L298 96 H102 Z" fill="#4bcdd1"/><path d="M76 336 H324 L298 304 H102 Z" fill="#4bcdd1"/>
  </g>
</svg>
